<?xml version="1.0" standalone="no"?><!DOCTYPE svg PUBLIC "-//W3C//DTD SVG 1.1//EN" "http://www.w3.org/Graphics/SVG/1.1/DTD/svg11.dtd"><svg t="1750428166318" class="icon" viewBox="0 0 1024 1024" version="1.1" xmlns="http://www.w3.org/2000/svg" p-id="3474" xmlns:xlink="http://www.w3.org/1999/xlink" width="200" height="200"><path d="M262.442667 355.157333v77.184c0 8.405333-6.101333 15.658667-14.250667 15.658667-8.106667 0-13.525333-7.253333-13.525333-15.658667V341.12c0-8.405333 6.869333-14.336 15.018666-14.336h183.893334c16.384 0 29.141333-14.336 29.141333-31.104 0-16.725333-12.757333-32-29.098667-32l-183.893333-0.042667c-8.32 0-15.061333-4.992-15.061333-13.525333s6.741333-15.445333 15.018666-15.445333h183.338667c32.810667 0 57.642667 27.136 57.642667 61.013333 0 33.92-24.32 59.733333-57.045334 59.733333L262.4 355.114667z" fill="#FF9158" p-id="3475"></path><path d="M682.666667 85.333333a42.666667 42.666667 0 0 1 42.666666 42.666667v725.333333a42.666667 42.666667 0 0 1-42.666666 42.666667H128a42.666667 42.666667 0 0 1-42.666667-42.666667V128a42.666667 42.666667 0 0 1 42.666667-42.666667h554.666667zM128 149.333333v682.666667a21.333333 21.333333 0 0 0 21.333333 21.333333h512a21.333333 21.333333 0 0 0 21.333334-21.333333v-682.666667a21.333333 21.333333 0 0 0-21.333334-21.333333h-512a21.333333 21.333333 0 0 0-21.333333 21.333333z" fill="#FF9158" p-id="3476"></path><path d="M802.688 408.064L896 533.333333V896h-341.333333V426.666667z" fill="#FFE5D8" p-id="3477"></path><path d="M754.176 554.666667l0.597333 0.042666 0.725334 0.042667c23.338667 0.853333 84.053333 8.96 84.053333 88.192 0 76.842667-50.304 82.176-83.370667 82.346667h-72.106666c-21.888-0.170667-33.664-0.725333-35.114667 20.778666l-0.170667 4.949334c0 26.453333 11.733333 29.226667 34.986667 29.525333l0.128-0.042667v0.042667h5.034667v-15.061333a15.061333 15.061333 0 0 1 30.122666 0v30.122666A15.061333 15.061333 0 0 1 704 810.666667h-25.088l-2.688-0.298667-3.157333-0.170667c-31.829333-2.773333-54.4-18.176-54.4-59.008 0-43.221333 25.301333-54.784 60.117333-55.893333l5.888-0.085333h69.418667c46.08 0 55.338667-27.904 55.338666-55.168 0-27.178667-9.258667-54.997333-55.338666-55.210667h-0.298667l-5.504-0.042667-29.269333-0.042666v70.314666a15.061333 15.061333 0 0 1-30.08 0v-85.333333c0-8.32 6.741333-15.061333 15.061333-15.061333h50.176z" fill="#FF9158" p-id="3478"></path><path d="M554.666667 384a42.666667 42.666667 0 0 0-42.666667 42.666667v469.333333a42.666667 42.666667 0 0 0 42.666667 42.666667h341.333333a42.666667 42.666667 0 0 0 42.666667-42.666667v-375.168a21.333333 21.333333 0 0 0-6.229334-15.061333l-115.541333-115.541334A21.333333 21.333333 0 0 0 801.834667 384H554.666667z m21.333333 42.666667h211.498667v87.168a21.333333 21.333333 0 0 0 17.493333 20.992l3.84 0.341333H896V874.666667a21.333333 21.333333 0 0 1-21.333333 21.333333h-298.666667a21.333333 21.333333 0 0 1-21.333333-21.333333v-426.666667a21.333333 21.333333 0 0 1 21.333333-21.333333zM226.304 719.786667v-123.392a17.621333 17.621333 0 0 1 35.242667 0v88.106666h68.266666l-14.165333-14.037333a17.621333 17.621333 0 0 1-2.218667-22.144l2.218667-2.773333a17.621333 17.621333 0 0 1 24.96 0l74.666667 74.24H226.261333z" fill="#FF9158" p-id="3479"></path></svg>